
        <svg xmlns="http://www.w3.org/2000/svg" xmlns:xlink="http://www.w3.org/1999/xlink" version="1.1" width="3168.5393258426966" 
        height="893.2584269662923" viewBox="0 0 3168.5393258426966 893.2584269662923">
			
			<g transform="scale(8.426966292134832) translate(10, 10)">
				<defs id="SvgjsDefs4982"></defs><g id="SvgjsG4983" featureKey="symbolFeature-0" transform="matrix(1.7701216080783406,0,0,1.7701216080783406,-6.852694961260358,-12.178912105559057)" fill="#005792"><g xmlns="http://www.w3.org/2000/svg"><path fill="#005792" d="M44.868,25.026c-2.097,0-3.795,1.7-3.795,3.796   c0,2.096,1.698,3.796,3.795,3.796c2.095,0,3.796-1.7,3.796-3.796C48.664,26.726,46.963,25.026,44.868,25.026z M19.813,25.026   c-2.098,0-3.796,1.7-3.796,3.796c0,2.096,1.699,3.796,3.796,3.796c2.096,0,3.795-1.7,3.795-3.796   C23.608,26.726,21.909,25.026,19.813,25.026z M9.242,20.24c-0.741-0.744-1.11-1.718-1.11-2.686c0-0.973,0.369-1.946,1.11-2.687   c0.745-0.74,1.714-1.109,2.686-1.109c0.973,0,1.946,0.369,2.686,1.109l-0.887,0.655c5.137-3.995,11.597-6.382,18.613-6.382   c7.018,0,13.469,2.386,18.613,6.382l-0.884-0.652c0.741-0.741,1.711-1.11,2.686-1.11c0.97,0,1.944,0.369,2.683,1.11   c0.738,0.745,1.107,1.718,1.107,2.686c0,0.974-0.366,1.946-1.107,2.687l0.886,0.651c12.835,12.834-9.011,18.613-9.011,18.613   H17.368c-0.63,0-22.741-4.884-9.011-18.613L9.242,20.24z"></path></g><path xmlns="http://www.w3.org/2000/svg" fill="#005792" d="M52.358,53.063c-2.55,0-4.617-2.067-4.617-4.618l0,0c0-2.55,2.067-4.617,4.617-4.617l0,0  c2.55,0,4.617,2.067,4.617,4.617l0,0C56.976,50.996,54.908,53.063,52.358,53.063L52.358,53.063z"></path><path xmlns="http://www.w3.org/2000/svg" fill="#005792" d="M14.422,53.483c-2.551,0-4.618-2.067-4.618-4.618l0,0c0-2.55,2.067-4.617,4.618-4.617l0,0  c2.551,0,4.618,2.067,4.618,4.617l0,0C19.04,51.416,16.973,53.483,14.422,53.483L14.422,53.483z"></path><path xmlns="http://www.w3.org/2000/svg" fill="#005792" d="M18.526,40.461h27.726C46.252,40.461,32.81,45.081,18.526,40.461z"></path></g><g id="SvgjsG4984" featureKey="textGroupContainer" transform="matrix(1,0,0,1,355,0)" fill="#005792"><rect xmlns="http://www.w3.org/2000/svg" y="0" height="1" width="1" opacity="0"></rect><rect xmlns="http://www.w3.org/2000/svg" y="0" x="-235" width="3" height="86"></rect></g><g id="SvgjsG4985" featureKey="nameFeature-0" transform="matrix(0.8637205286308081,0,0,0.8637205286308081,136.2728508442909,11.693640064212328)" fill="#005792"><path d="M20.285 33.9452 c0.29168 -0.2407 0.60496 -0.43736 0.99888 -0.461 c0.9022 1.0166 1.7933 2.0208 2.6981 3.0401 c-0.11504 0.11547 -0.19664 0.20879 -0.28953 0.2891 c-1.0235 0.88288 -2.0479 1.7644 -3.074 2.6445 c-0.17082 0.14648 -0.34422 0.29168 -0.52676 0.42276 c-0.35223 0.25305 -0.74288 0.38848 -1.1843 0.38609 c-1.7048 -0.0095312 -3.4098 -0.01125 -5.1148 -0.015391 c-2.5071 -0.0060936 -5.0144 -0.011289 -7.5216 -0.016914 c-0.14844 -0.00023438 -0.29711 0 -0.4104 0 c-0.92672 -0.81124 -1.6933 -1.7002 -2.4062 -2.638 c-0.36332 -0.47812 -0.72336 -0.95884 -1.0919 -1.4328 c-0.2077 -0.26715 -0.28172 -0.54104 -0.25852 -0.89548 c0.039297 -0.59532 0.093556 -1.2006 -0.056212 -1.7955 c-0.029961 -0.11894 -0.016289 -0.24961 -0.017383 -0.37484 c-0.011719 -1.2536 -0.032539 -2.5071 -0.030586 -3.7607 c0.0030469 -1.9058 0.019531 -3.8115 0.036875 -5.7172 c0.0032422 -0.37394 -0.021914 -0.74876 0.069688 -1.1218 c0.04668 -0.18988 0.016953 -0.3991 0.018242 -0.59964 c0.0058592 -0.9278 0.00085936 -1.8558 0.019102 -2.7834 c0.010859 -0.54864 0.024766 -1.0947 0.11742 -1.6438 c0.090936 -0.53888 0.058164 -1.0986 0.081836 -1.702 c0.30644 -0.43772 0.76352 -0.7928 1.1926 -1.1718 c0.56276 -0.4968 1.1438 -0.9734 1.7169 -1.4585 c0.40084 -0.33922 0.80192 -0.6782 1.2275 -1.038 c0.86576 0.055116 1.7295 -0.13176 2.6059 -0.13394 c3.3095 -0.008242 6.6188 -0.016914 9.9284 -0.034492 c0.53128 -0.0028125 0.97988 0.15215 1.343 0.54388 c0.15324 0.16539 0.31797 0.32078 0.46468 0.4918 c0.6522 0.76072 1.3884 1.4411 2.0681 2.1753 c0.13562 0.14672 0.27625 0.28672 0.43752 0.34141 c0.067264 0.21051 -0.015859 0.34223 -0.11242 0.45592 c-0.29168 0.34356 -0.58336 0.6882 -0.89372 1.0146 c-0.48332 0.50828 -0.98488 0.99876 -1.4194 1.552 c-0.075312 0.095936 -0.18274 0.16863 -0.28215 0.24285 s-0.20012 0.1541 -0.41084 0.13871 c-0.45488 -0.25262 -0.78996 -0.72836 -1.1802 -1.1426 c-0.37699 -0.4002 -0.6624 -0.88156 -1.0776 -1.2338 c-0.23137 -0.089412 -0.45924 -0.044688 -0.68256 -0.051408 c-0.599 -0.018008 -1.2021 0.0434 -1.7935 -0.11547 c-0.11785 -0.03168 -0.24957 -0.01582 -0.3748 -0.01582 c-2.2818 -0.0017188 -4.5636 -0.0025781 -6.8456 -0.0023438 c-0.048828 0 -0.097656 0.015625 -0.20508 0.033867 c-0.22852 0.23199 -0.50068 0.49028 -0.75132 0.76764 c-0.25109 0.27801 -0.48092 0.57512 -0.729 0.8746 c-0.034961 0.39652 -0.048868 0.79108 0.025352 1.1902 c0.04082 0.21965 0.047772 0.44772 0.048632 0.67216 c0.0056252 1.379 0.0032422 2.758 0.007578 4.1372 c0.0058592 1.9055 0.019531 3.8108 0.020625 5.7164 c0.00023438 0.67668 0.027148 1.3603 -0.0575 2.0283 c-0.07922 0.62548 -0.06922 1.2479 -0.099804 1.8714 c-0.0023828 0.049688 0.005 0.099804 0.01 0.18902 c0.28539 0.54888 0.70012 1.0528 1.0749 1.5824 c0.22508 0.31816 0.48832 0.59208 0.9402 0.4074 c0.79648 0.11394 1.5997 0.06078 2.3995 0.092892 c0.67604 0.027109 1.3541 0.0067188 2.0308 0.022109 c0.34832 0.0080468 0.69448 0.009336 1.0457 0.067736 c0.39043 0.064884 0.80972 0.075936 1.1982 0.0073436 c0.6752 -0.11938 1.3486 -0.059024 2.0223 -0.079844 c0.22398 -0.0069532 0.4484 -0.0010938 0.6324 -0.0010938 c0.67756 -0.53908 1.323 -1.0502 1.965 -1.5654 c0.15606 -0.12543 0.29734 -0.26934 0.45188 -0.39672 z M56.512 28.753 c-0.007578 0.55148 -0.087968 1.0966 -0.1023 1.6439 c-0.030586 1.1528 -0.01582 2.307 -0.017109 3.4606 c-0.00023438 0.1502 -0.011953 0.30797 0.027774 0.44924 c0.13281 0.47032 0.071172 0.943 0.076172 1.4153 c-0.72964 0.78608 -1.5481 1.4515 -2.2934 2.1916 c-0.72792 0.72292 -1.4305 1.4712 -2.1679 2.2328 c-0.66044 0.010625 -1.336 0.025391 -2.0117 0.03082 c-0.55192 0.004336 -1.1038 -0.0047656 -1.6555 -0.0032422 c-0.27434 0.00066408 -0.54716 -0.01668 -0.8208 0.061016 c-0.16363 0.046444 -0.34856 0.028008 -0.52328 0.022148 c-0.82144 -0.027774 -1.6423 -0.067264 -2.4637 -0.091368 c-0.80216 -0.023438 -1.6104 0.02082 -2.4056 -0.0634 c-0.8744 -0.09246 -1.7519 -0.06836 -2.6213 -0.15062 c-0.67172 -0.06336 -1.3454 -0.090704 -1.9822 -0.13801 c-1.061 -0.61724 -4.0232 -3.4731 -4.9432 -4.4764 c0 -0.92476 0.0041408 -1.8766 -0.00085936 -2.8285 c-0.0078124 -1.4797 0.04168 -2.9636 -0.052736 -4.438 c-0.083556 -1.3026 -0.061212 -2.602 -0.091796 -3.9028 c-0.011055 -0.4738 0.012188 -0.94952 0.06254 -1.4133 c0.07336 -0.67692 0.047108 -1.3514 0.071836 -2.0264 c0.024726 -0.67668 -0.016289 -1.3577 0.044064 -2.0303 c0.069452 -0.77396 0.049064 -1.55 0.10051 -2.3578 c0.53908 -0.69772 1.0884 -1.311 1.7347 -1.8358 c0.21356 -0.1734 0.40716 -0.37219 0.6044 -0.56492 c0.5914 -0.57796 1.1804 -1.1585 1.7673 -1.7352 c1.0784 -0.14738 2.1477 -0.23613 3.2244 -0.2216 c1.2036 0.016289 2.4073 0.035586 3.6111 0.04754 c0.44556 0.004336 0.89132 0.10918 1.3375 0.00089844 c0.046876 -0.011484 0.10047 -0.0014844 0.14996 0.0054688 c1.1459 0.15953 2.3009 0.083556 3.4512 0.13391 c0.14953 0.0065236 0.30883 -0.0064844 0.44596 0.040624 c0.24566 0.084412 0.49372 0.075312 0.74308 0.079884 c0.70212 0.012578 1.4042 0.029922 2.1063 0.028203 c0.38024 -0.0010938 0.74656 0.051876 1.1602 0.18816 c1.0328 1.2254 2.1358 2.4548 3.1367 3.8017 c0.19988 1.2245 0.16949 2.4759 0.1723 3.7258 c0.0056252 2.4329 0.011484 4.8656 0.02125 7.2984 c0.0019531 0.47464 0.11024 0.9404 0.10371 1.4196 z M50.11 35.4852 c0.80496 -0.57232 1.5272 -1.218 2.2738 -1.8372 c-0.058164 -1.1704 0.043632 -2.3109 -0.096564 -3.4547 c-0.10289 -0.8412 -0.044728 -1.6972 -0.15715 -2.5456 c-0.10504 -0.793 -0.033867 -1.6004 -0.13609 -2.4006 c-0.070548 -0.55236 -0.033008 -1.119 -0.032578 -1.6794 c0.0010938 -1.4131 0.0097656 -2.8264 0.012578 -4.2396 c0.00042968 -0.19293 -0.016484 -0.38586 -0.024726 -0.56536 c-0.55104 -0.70904 -1.0865 -1.3981 -1.6264 -2.0926 c-0.3477 0 -0.62312 -0.040352 -0.87988 0.011289 c-0.26652 0.053592 -0.52932 0.065744 -0.79604 0.072696 c-0.41408 0.010625 -0.8282 0.019961 -1.2423 0.027109 c-0.3898 0.0067188 -0.7796 0.010195 -1.1694 0.014766 c-0.41428 0.005 -0.83012 -0.012578 -1.242 0.020625 c-0.41236 0.033203 -0.8212 -0.0028125 -1.2314 -0.0034766 c-1.1939 -0.0017188 -2.388 -0.0097656 -3.5816 -0.027774 c-0.36308 -0.0054296 -0.72704 -0.0026172 -1.0871 -0.1016 c-0.30168 -0.082892 -0.60336 0.0037109 -0.7922 0.25285 c-0.3668 0.48416 -0.83428 0.88872 -1.1373 1.431 c0 0.14367 -0.0019531 0.28973 0.00042968 0.4356 c0.0089064 0.56016 0.023867 1.1206 0.028203 1.6807 c0.0041408 0.53604 -0.0041016 1.0721 -0.0034375 1.6082 c0.00066408 0.56036 0.0060936 1.1205 0.0082812 1.6809 c0.0021875 0.53604 -0.02125 1.0736 0.011094 1.6077 c0.033867 0.55752 -0.017148 1.1112 -0.023008 1.6666 c-0.0091016 0.8744 0.036484 1.7532 -0.12801 2.6206 c-0.0023828 1.2668 -0.0041016 2.5336 -0.0073436 3.8004 c-0.00066408 0.26238 0.11066 0.46728 0.30621 0.6348 c0.29582 0.25305 0.58536 0.51392 0.88552 0.76176 c0.20531 0.16949 0.42428 0.3225 0.6348 0.48112 c0.35746 -0.022344 0.69692 0.03625 1.0316 -0.082032 c0.11004 -0.038867 0.2407 -0.02043 0.36223 -0.026289 c1.3152 -0.0625 2.6308 -0.044924 3.946 0.00023438 c0.26457 0.0091016 0.52676 0.087228 0.79132 0.096328 c0.85208 0.029531 1.7048 0.04254 2.5573 0.060116 c0.84816 0.017578 1.6989 -0.069452 2.5453 0.090508 z M89.049 15.835999999999999 c-0.17949 0.14043 -0.4176 0.1582 -0.63896 0.1643 c-0.40104 0.013438 -0.80236 0.020391 -1.2036 0.028203 c0.0021875 0.43472 0.0073828 0.86964 0.0065236 1.3044 c-0.0058592 3.2105 -0.011484 6.4208 -0.023203 9.6312 c-0.0015234 0.37328 0.028633 0.74852 -0.08574 1.1188 c-0.049924 0.16234 -0.027148 0.34856 -0.029102 0.52392 c-0.018242 1.6052 -0.028867 3.2103 -0.054256 4.8156 c-0.012578 0.79996 -0.06164 1.5995 -0.075548 2.3994 l0 0.0025781 c0.033203 0.0065236 0.066408 0.013242 0.10137 0.015859 c0.062928 0.0045704 0.12586 0.009336 0.18879 0.013906 c0.63936 -0.08746 1.2779 -0.14129 1.9153 -0.066836 c0.13281 0.015391 0.22938 0.19117 0.22047 0.38844 c-0.027344 0.60576 -0.039492 1.213 -0.038828 1.82 c0.012812 0.525 0.025625 1.0498 0.038438 1.5748 c0.0023828 0.10418 0.0041016 0.21422 -0.030391 0.30492 c-0.046876 0.12348 -0.14281 0.17144 -0.2409 0.19141 c-0.15172 0.1552 -0.35289 0.17449 -0.53996 0.18274 c-0.9352 0.041016 -1.8708 0.052072 -2.8062 0.065312 c-0.1723 0.0091016 -0.34223 0.013438 -0.5508 0.008242 c-0.038398 0.00066408 -0.076796 0.0010938 -0.1152 0.0017578 c-0.034961 0.00066408 -0.069924 0.0010938 -0.10484 0.0017578 c-0.017578 0.00023438 -0.035156 0.00066408 -0.052736 0.00089844 c-0.089648 0.0015234 -0.17949 0.0030469 -0.26914 0.0045704 c-0.06836 0.0030469 -0.13695 0.005 -0.20055 0.009336 c-0.2207 0.015195 -0.37676 -0.072696 -0.566 -0.0866 c-0.025195 -0.0019531 -0.050588 -0.0036719 -0.075976 -0.0056252 c-0.057928 -0.00023438 -0.11586 -0.00046876 -0.17379 -0.00089844 c-0.619 0.082696 -1.2373 0.13176 -1.8543 0.059688 c-0.073124 -0.0084764 -0.13476 -0.066876 -0.17426 -0.14976 c-0.28863 -0.2702 -0.46576 -0.6298 -0.65672 -0.97684 c-0.37394 -0.67908 -0.73488 -1.3656 -1.1027 -2.0482 c-0.42736 -0.7928 -0.86356 -1.5809 -1.2826 -2.378 c-0.62828 -1.1952 -1.2379 -2.4004 -1.8691 -3.594 c-0.47964 -0.9072 -0.99076 -1.7979 -1.4691 -2.7058 c-0.6068 -1.1513 -1.2043 -2.3075 -1.7349 -3.4974 c-0.43772 -0.98208 -0.895 -1.9557 -1.3464 -2.9319 c-0.061836 -0.13367 -0.13844 -0.26062 -0.21742 -0.40776 c-0.14215 0.21117 -0.089412 0.41648 -0.090076 0.60984 c-0.0089064 2.4077 -0.011094 4.8156 -0.018476 7.2236 c-0.0021875 0.69968 -0.0071876 1.3966 -0.081212 2.0976 c-0.076172 0.71988 -0.027109 1.453 -0.032539 2.1803 c-0.0056252 0.76656 -0.010391 1.5333 -0.017539 2.2999 c0.58468 -0.058828 1.1685 -0.085508 1.7517 -0.024531 c0.14844 0.015391 0.25672 0.19117 0.24672 0.38844 c-0.03082 0.60576 -0.044492 1.213 -0.043632 1.82 c0.014336 0.525 0.028672 1.0498 0.043008 1.5748 c0.0028125 0.10418 0.0045312 0.21422 -0.033867 0.30492 c-0.052736 0.12348 -0.15996 0.17144 -0.26976 0.19141 c-0.16973 0.15516 -0.395 0.17445 -0.60444 0.1827 c-1.0467 0.041016 -2.0943 0.052072 -3.1415 0.065312 c-0.19293 0.0091016 -0.38305 0.013438 -0.61656 0.008242 c-0.042968 0.00066408 -0.085936 0.0010938 -0.12891 0.0017578 c-0.039297 0.00066408 -0.07836 0.0010938 -0.11742 0.0017578 c-0.019531 0.00023438 -0.039297 0.00066408 -0.059064 0.00089844 c-0.10027 0.0015234 -0.20074 0.0030469 -0.30121 0.0045704 c-0.0766 0.0030469 -0.15301 0.005 -0.22442 0.009336 c-0.24719 0.015195 -0.42192 -0.072696 -0.63376 -0.0866 c-0.070548 -0.0045704 -0.14086 -0.009336 -0.21141 -0.013906 c-0.7158 0.08746 -1.4307 0.14129 -2.1442 0.066836 c-0.14844 -0.015391 -0.25672 -0.19117 -0.24672 -0.38844 c0.03082 -0.60576 0.044492 -1.213 0.043632 -1.82 c-0.014336 -0.525 -0.028672 -1.0498 -0.043008 -1.5748 c-0.0030469 -0.10418 -0.0047656 -0.21422 0.033867 -0.30492 c0.05254 -0.12348 0.15976 -0.17144 0.26957 -0.19141 c0.16973 -0.1552 0.395 -0.17449 0.60444 -0.18274 c0.32055 -0.012578 0.64132 -0.018672 0.96188 -0.026484 c0.061836 -1.2177 0.032305 -2.4346 0.039688 -3.6522 c0.008672 -1.4541 0.058592 -2.9117 -0.019336 -4.362 c-0.063164 -1.1767 -0.074452 -2.3515 -0.085076 -3.5274 c-0.012812 -1.404 -0.044296 -2.8104 0.024492 -4.2112 c0.04668 -0.94908 0.02043 -1.9058 0.13676 -2.8461 c0.041252 -0.33293 0.062968 -0.66564 0.079452 -0.99832 c-0.5198 0.068592 -1.0392 0.10699 -1.5574 0.044688 c-0.11676 -0.013906 -0.20184 -0.17277 -0.19402 -0.35141 c0.024297 -0.54776 0.034922 -1.0969 0.034258 -1.646 c-0.011055 -0.47484 -0.022344 -0.94948 -0.033633 -1.4243 c-0.0021875 -0.093984 -0.0037109 -0.19359 0.02668 -0.27562 c0.041252 -0.11156 0.12547 -0.15496 0.21184 -0.17297 c0.13348 -0.1402 0.31035 -0.15777 0.47484 -0.16516 c0.82236 -0.037344 1.6451 -0.047344 2.4679 -0.059296 c0.15148 -0.0080468 0.30078 -0.012188 0.48436 -0.007422 c0.033867 -0.00042968 0.0675 -0.00085936 0.10137 -0.0015234 c0.03082 -0.00042968 0.061408 -0.00085936 0.092228 -0.0015234 c0.015391 -0.00023438 0.031016 -0.00066408 0.046408 -0.00089844 c0.078984 -0.0012891 0.15777 -0.0028125 0.23676 -0.0041016 c0.060116 -0.0028125 0.12024 -0.0045312 0.17621 -0.0084376 c0.19402 -0.013672 0.33141 0.065744 0.49784 0.07832 c0.052072 0.0041408 0.10394 0.0080468 0.15602 0.011953 c0.004336 0.00023438 0.0089064 0.00023438 0.013476 0.00046876 c0.56124 -0.078984 1.1216 -0.12738 1.6811 -0.060116 c0.071172 0.008672 0.13 0.071408 0.16387 0.1591 c0.0012891 -0.00023438 0.0028125 -0.00023438 0.0041016 -0.00046876 c0.32035 0.43276 0.59384 0.8844 0.80416 1.358 c0.57036 1.284 1.3195 2.47 1.9667 3.7112 c0.34617 0.66392 0.6752 1.3376 0.99116 2.0162 c0.35984 0.77284 0.75744 1.5255 1.2069 2.2476 c0.47728 0.76676 0.88356 1.5709 1.2961 2.3706 c0.72312 1.4022 1.4782 2.7856 2.2964 4.1348 c0.38891 0.64176 0.75592 1.2968 1.1309 1.947 c0.061408 0.10656 0.11371 0.21812 0.2552 0.23808 c0.083124 -0.13953 0.051212 -0.29363 0.052928 -0.44144 c0.0067188 -0.55168 0.025156 -1.1042 0.0073436 -1.6553 c-0.026055 -0.80408 0.10699 -1.5982 0.12024 -2.3986 c0.023867 -1.4291 0.0534 -2.859 0.039062 -4.288 c-0.0036719 -0.37524 0.12656 -0.72728 0.071876 -1.1146 c-0.049924 -0.35418 -0.060548 -0.73484 0.029531 -1.0994 c0.011953 -0.04754 0.013906 -0.10266 0.0021875 -0.14976 c-0.10547 -0.42168 -0.017578 -0.84316 0.022578 -1.2588 c0.069452 -0.72056 0.10289 -1.4422 0.12266 -2.1642 c-0.70448 0.069452 -1.4083 0.10875 -2.1106 0.046016 c-0.15715 -0.013906 -0.27176 -0.17277 -0.26113 -0.35141 c0.032774 -0.54776 0.047108 -1.0969 0.046252 -1.646 c-0.015195 -0.47464 -0.030156 -0.94928 -0.045352 -1.4241 c-0.0030469 -0.093984 -0.005 -0.19359 0.03582 -0.27562 c0.055548 -0.11156 0.16906 -0.15496 0.28516 -0.17297 c0.17926 -0.1402 0.41736 -0.15777 0.63896 -0.16516 c1.1066 -0.037109 2.2141 -0.047108 3.3214 -0.059064 c0.20402 -0.008242 0.405 -0.012148 0.652 -0.0073828 c0.045352 -0.00042968 0.090936 -0.00085936 0.13629 -0.0015234 c0.041444 -0.00066408 0.082696 -0.0010938 0.12414 -0.0017578 c0.02082 -0.00023438 0.04164 -0.00066408 0.06246 -0.00089844 c0.10613 -0.0012891 0.21246 -0.0028125 0.31859 -0.0041016 c0.080936 -0.0028125 0.16188 -0.0045312 0.23719 -0.0084376 c0.26129 -0.013906 0.44596 0.065744 0.66996 0.07832 c0.074452 0.0041408 0.1491 0.0084764 0.22356 0.012617 c0.7568 -0.07922 1.5127 -0.12805 2.2671 -0.060548 c0.15715 0.013906 0.27176 0.17277 0.26113 0.35141 c-0.032539 0.54776 -0.046876 1.0969 -0.046016 1.646 c0.015195 0.47484 0.030156 0.94948 0.045352 1.4243 c0.0030469 0.093984 0.005 0.19359 -0.03582 0.27562 c-0.055548 0.11156 -0.16906 0.15496 -0.28516 0.17297 z M120.606 12.317 c0.12934 0.5228 0.050548 1.021 0.027774 1.5043 c-0.009336 0.1975 -0.016289 0.39566 -0.023242 0.5936 c0.018008 0.60464 0.030156 1.2095 0.039258 1.8143 c0.0091016 0.15973 0.013438 0.3173 0.008242 0.51068 c0.00066408 0.035586 0.0010938 0.071172 0.0017578 0.10676 c0.00042968 0.032344 0.0010938 0.064884 0.0017578 0.097228 c0.00023438 0.016484 0.00066408 0.032774 0.00089844 0.049064 c0.0015234 0.083124 0.0030469 0.16644 0.0045704 0.24957 c0.0030469 0.06336 0.005 0.12672 0.009336 0.18574 c0.015195 0.20465 -0.072696 0.34942 -0.0866 0.52476 c-0.0045704 0.0584 -0.009336 0.1168 -0.013906 0.1752 c0.08746 0.59268 0.14148 1.1848 0.066836 1.7758 c-0.015625 0.12305 -0.19121 0.2127 -0.38871 0.20445 c-0.60552 -0.025391 -1.2128 -0.03668 -1.8198 -0.036016 c-0.525 0.011953 -1.0498 0.023672 -1.5748 0.035625 c-0.10418 0.0023828 -0.21422 0.0039062 -0.30492 -0.028008 c-0.12371 -0.0434 -0.17144 -0.13238 -0.19141 -0.22332 c-0.1552 -0.14043 -0.17449 -0.32688 -0.18274 -0.50052 c-0.037969 -0.80324 -0.049924 -1.6069 -0.062072 -2.4106 c-1.1118 0.0095312 -2.2237 0.023867 -3.3358 0.028867 c-0.40152 0.0019531 -0.78872 0.072928 -1.1576 0.15496 c-0.1068 0.12719 -0.078164 0.25633 -0.078592 0.37875 c-0.0071484 2.1571 -0.011484 4.314 -0.020586 6.4712 c-0.0026172 0.62548 0.018203 1.2527 -0.11156 1.8719 c-0.025391 0.1209 -0.013906 0.25004 -0.013906 0.37527 c-0.0032422 3.0241 -0.0045312 6.0484 -0.0091016 9.0724 c0.51328 -0.043828 1.0257 -0.057736 1.5377 -0.004336 c0.14867 0.015391 0.25676 0.19117 0.24676 0.38844 c-0.03082 0.60576 -0.044492 1.213 -0.043632 1.82 c0.014336 0.525 0.028672 1.0498 0.043008 1.5748 c0.0028125 0.10418 0.0047656 0.21422 -0.033867 0.30492 c-0.05254 0.12348 -0.15976 0.17144 -0.26957 0.19141 c-0.16973 0.1552 -0.395 0.17449 -0.6044 0.18274 c-0.32078 0.012578 -0.64176 0.018672 -0.96272 0.026484 c-0.073556 0.067928 -0.15992 0.070744 -0.24129 0.064648 c-0.42252 -0.031914 -0.849 -0.0028125 -1.2718 -0.035156 c-0.22203 0.0028125 -0.44384 0.0064844 -0.66564 0.0092968 c-0.19293 0.0091016 -0.38305 0.013438 -0.61656 0.008242 c-0.042968 0.00066408 -0.085936 0.0010938 -0.12891 0.0017578 c-0.039062 0.00066408 -0.07836 0.0010938 -0.11742 0.0017578 c-0.019531 0.00023438 -0.039297 0.00066408 -0.059064 0.00089844 c-0.10027 0.0015234 -0.20074 0.0030469 -0.30121 0.0045704 c-0.0766 0.0030469 -0.1532 0.005 -0.22438 0.009336 c-0.24719 0.015195 -0.42192 -0.072696 -0.63376 -0.0866 c-0.070548 -0.0045704 -0.14086 -0.009336 -0.21141 -0.013906 c-0.047736 0.0058592 -0.095704 0.01 -0.14344 0.01543 c-0.03125 0.007578 -0.0625 0.013672 -0.093516 0.023867 c-0.072264 0.024102 -0.15191 0.030391 -0.22832 0.010859 c-0.56016 0.053592 -1.1199 0.075076 -1.6788 0.01668 c-0.14844 -0.015391 -0.25672 -0.19117 -0.24672 -0.38844 c0.03082 -0.60576 0.044492 -1.213 0.043632 -1.82 c-0.014336 -0.525 -0.028672 -1.0498 -0.043008 -1.5748 c-0.0028125 -0.10418 -0.0045312 -0.21422 0.033867 -0.30492 c0.05254 -0.12348 0.15996 -0.17144 0.26976 -0.19141 c0.16973 -0.15516 0.395 -0.17445 0.6044 -0.1827 c0.28973 -0.011289 0.57968 -0.016484 0.86964 -0.023867 c0.0021875 -0.047968 0.0026172 -0.095704 -0.0034766 -0.14238 c-0.089412 -0.69448 -0.075076 -1.3894 -0.0484 -2.0867 c0.013242 -0.3477 -0.034492 -0.69712 -0.034922 -1.0458 c-0.0030469 -2.2072 -0.00066408 -4.4144 0 -6.6216 c0 -0.075312 -0.011953 -0.15215 -0.00046876 -0.22551 c0.17363 -1.0947 0.052736 -2.2052 0.16297 -3.2993 c0.12609 -1.2514 0.0766 -2.5028 0.11633 -3.7538 c0.010195 -0.32293 0.0015234 -0.64652 0.0015234 -0.9354 c-0.18988 -0.21031 -0.41388 -0.11375 -0.5994 -0.17473 c-0.16254 -0.053592 -0.34418 -0.059452 -0.51824 -0.067032 c-0.40064 -0.017344 -0.80216 -0.021484 -1.2032 -0.033203 c-0.56712 -0.016719 -1.1338 -0.046876 -1.7005 -0.077032 c0.00066408 0.02582 0.0010938 0.051876 0.0015234 0.077696 c0.00023438 0.016484 0.00066408 0.032774 0.00089844 0.049064 c0.0015234 0.083124 0.0030469 0.16644 0.0045704 0.24957 c0.0030469 0.06336 0.005 0.12672 0.009336 0.18574 c0.015195 0.20465 -0.072696 0.34942 -0.0866 0.52476 c-0.0045704 0.0584 -0.009336 0.1168 -0.013906 0.1752 c0.087696 0.59268 0.14152 1.1848 0.067072 1.7758 c-0.015625 0.12305 -0.19141 0.2127 -0.38867 0.20445 c-0.60576 -0.025391 -1.2128 -0.03668 -1.8198 -0.036016 c-0.525 0.011953 -1.0498 0.023672 -1.5748 0.035625 c-0.10418 0.0023828 -0.21422 0.0039062 -0.30492 -0.028008 c-0.12371 -0.0434 -0.17144 -0.13238 -0.19141 -0.22332 c-0.1552 -0.14043 -0.17449 -0.32688 -0.18274 -0.50052 c-0.041016 -0.86704 -0.052072 -1.7345 -0.065312 -2.6018 c-0.0041408 -0.073556 -0.0071876 -0.14691 -0.0089064 -0.22332 c-0.011289 -0.019102 -0.019531 -0.036445 -0.019531 -0.052928 c0.00042968 -0.29644 0.0028125 -0.59288 0.0034766 -0.88932 c-0.00066408 -0.010859 -0.00089844 -0.022578 -0.0017578 -0.033203 c-0.0015234 -0.019961 0.0017188 -0.037305 0.0019531 -0.056172 c0.0012891 -0.50436 0.0036719 -1.0088 0.0058592 -1.5131 c-0.010859 -0.19816 -0.008672 -0.39609 0.0021875 -0.5938 c0.0015234 -0.30016 0.0015234 -0.60052 0.0034766 -0.90068 c0.00042968 -0.070312 0.039297 -0.1402 0.067304 -0.23375 c0.088752 -0.026914 0.18164 -0.079452 0.2743 -0.079024 c0.57448 0.0021875 1.147 -0.037109 1.7237 0.058592 c0.41604 0.069024 0.85032 0.033867 1.2766 0.034102 c0.9278 0.00023438 1.8558 -0.0039062 2.7836 -0.012812 c0.22418 -0.0021875 0.44816 -0.043204 0.67216 -0.043436 c0.41692 -0.00042968 0.83408 0.024297 1.2512 0.023203 c0.3698 -0.0010938 0.73724 0.0064844 1.1099 -0.040196 c0.4412 -0.055352 0.8948 -0.031484 1.3421 -0.015859 c1.0009 0.034726 1.9999 -0.039726 3.0002 -0.038438 c0.97792 0.0012891 1.9591 0.019961 2.9331 -0.049688 c0.65324 -0.046876 1.2937 0.040156 1.9407 0.037969 c1.0782 -0.0036719 2.1566 0.031484 3.2348 0.033438 c0.40368 0.00066408 0.7878 0.079024 1.1615 0.15109 z M152.11399999999998 35.5608 c0.099412 0.51436 0.096212 1.7895 0.0085156 3.0435 c0.023672 0.37938 0.027344 0.75832 -0.012578 1.137 c-0.0069532 0.065548 -0.049064 0.12219 -0.11137 0.16192 c-0.0021875 0.017344 -0.0041408 0.035352 -0.006328 0.0525 c-0.32469 0.33031 -0.7648 0.35504 -1.1756 0.26844 c-0.62572 -0.13195 -1.2479 -0.074648 -1.8717 -0.08074 c-0.62436 -0.0062892 -1.2501 -0.054924 -1.8723 0.081172 c-0.24047 0.05254 -0.4996 0.024961 -0.75028 0.025195 c-0.85252 0.00066408 -1.7063 0.023008 -2.5575 -0.013438 c-0.57316 -0.024726 -1.1438 -0.115 -1.7208 -0.10891 c-0.65196 0.0069532 -1.3041 0.009336 -1.9561 0.0010938 c-0.67472 -0.008672 -1.3532 0.038008 -2.0196 -0.12629 c-0.11914 -0.029297 -0.2498 -0.013242 -0.37524 -0.013672 c-0.57688 -0.0023828 -1.1538 -0.0045704 -1.7306 -0.0041408 c-0.5476 0.00042968 -1.1034 -0.018008 -1.6406 0.044728 c-0.902 0.10547 -1.797 0.067264 -2.6474 0.07246 c-0.051876 -0.027578 -0.091368 -0.057736 -0.12371 -0.089648 c-0.0434 0.0021875 -0.086796 0.0037109 -0.12738 0.0071876 c-0.17578 0.014531 -0.30016 -0.070116 -0.45096 -0.083556 c-0.050116 -0.0045704 -0.10024 -0.0089064 -0.15035 -0.013476 c-0.50936 0.084412 -1.0181 0.13629 -1.5259 0.064452 c-0.1057 -0.014961 -0.18274 -0.18426 -0.17558 -0.37461 c0.021914 -0.58384 0.03168 -1.1692 0.031016 -1.7542 c-0.010195 -0.50592 -0.020391 -1.012 -0.030586 -1.5179 c-0.0021875 -0.10027 -0.0032812 -0.20641 0.024062 -0.29387 c0.037344 -0.11914 0.11375 -0.16516 0.19188 -0.18445 c0.1209 -0.14953 0.28106 -0.1684 0.43016 -0.17621 c0.54584 -0.029062 1.0921 -0.041444 1.6381 -0.05164 c-0.005 -1.8052 -0.011094 -3.6103 -0.0024219 -5.4152 c0.0023828 -0.49828 -0.059452 -0.99092 -0.064452 -1.4886 c-0.016484 -1.6242 -0.082696 -3.2481 -0.091172 -4.872 c-0.009336 -1.7803 -0.01 -3.5621 0.055116 -5.3408 c0.022344 -0.6094 0.044064 -1.2219 0.087892 -1.8313 c-0.12566 -0.017148 -0.23156 -0.070312 -0.35246 -0.080936 c-0.051876 -0.0045704 -0.10394 -0.0091408 -0.15582 -0.013711 c-0.52652 0.086368 -1.0532 0.13953 -1.5793 0.065976 c-0.10961 -0.015195 -0.18926 -0.1884 -0.18188 -0.38266 c0.022578 -0.59292 0.032344 -1.1826 0.03168 -1.7677 c-0.010625 -0.5024 -0.021055 -1.0014 -0.03125 -1.4973 c-0.0021875 -0.097892 -0.0034766 -0.20141 0.024297 -0.28648 c0.037539 -0.11566 0.11457 -0.16058 0.19336 -0.17926 c0.12133 -0.14496 0.28258 -0.1632 0.43276 -0.17078 c0.71944 -0.03668 1.4391 -0.04754 2.1588 -0.059256 c0.036016 -0.015391 0.073788 -0.029062 0.11309 -0.033398 c0.59704 -0.065312 1.203 0.022578 1.7972 -0.1009 c0.62004 0.13367 1.2492 0.062264 1.8738 0.075076 c1.3792 0.028438 2.7589 0.032578 4.1384 0.053632 c0.42388 0.0062892 0.84884 -0.015195 1.2699 0.091368 c0.18902 0.047968 0.3991 0.015625 0.59964 0.015859 c1.9059 0.0023828 3.8119 -0.00085936 5.7176 0.0071876 c0.23547 0.0010938 0.47092 0.004336 0.7064 0.0062892 c0.062304 -0.036016 0.14195 -0.056212 0.22637 -0.051876 c0.54776 0.027774 1.0969 0.039922 1.646 0.039258 c0.47464 -0.013008 0.94928 -0.02582 1.4241 -0.038633 c0.093984 -0.0023828 0.19359 -0.0041016 0.27562 0.030625 c0.048828 0.02082 0.082892 0.051836 0.10914 0.087424 c0.22442 0.055548 0.30644 0.19293 0.31316 0.50176 c0.023008 1.053 0.033867 2.1063 0.037774 3.1595 c0.00066408 0.14691 0.018906 0.30621 -0.054648 0.45032 c0.00023438 0.027344 0.00066408 0.054452 0.0010938 0.0816 c0.00042968 0.035156 0.0010938 0.070312 0.0015234 0.10547 c0.00023438 0.017812 0.00066408 0.035391 0.00089844 0.053204 c0.0012891 0.090272 0.0028125 0.18055 0.0041016 0.27082 c0.0028125 0.068788 0.0045312 0.13781 0.0084376 0.20184 c0.013906 0.22203 -0.065744 0.37918 -0.07832 0.56972 c-0.0041408 0.06336 -0.0084764 0.12672 -0.012617 0.19008 c0.07922 0.64348 0.12805 1.2861 0.060548 1.9276 c-0.013906 0.13348 -0.17277 0.23094 -0.35141 0.22184 c-0.54776 -0.027774 -1.0969 -0.039922 -1.646 -0.039258 c-0.47464 0.012812 -0.94928 0.02582 -1.4241 0.038633 c-0.093984 0.0023828 -0.19359 0.0041016 -0.27562 -0.030625 c-0.11156 -0.047304 -0.15496 -0.14367 -0.17297 -0.24242 c-0.1402 -0.15258 -0.15777 -0.35508 -0.16516 -0.54348 c-0.032344 -0.8158 -0.0434 -1.6321 -0.053828 -2.4483 c-0.35613 0.0028125 -0.71228 0.0041016 -1.068 0.014961 c-0.4738 0.014336 -0.94648 0.079452 -1.4198 0.080312 c-0.79672 0.0012891 -1.5936 -0.029726 -2.3904 -0.049256 c-0.049064 -0.0012891 -0.10008 -0.035352 -0.14629 -0.028203 c-0.59752 0.093088 -1.1924 -0.037774 -1.7899 -0.015859 c-0.60116 0.022148 -1.2036 0.0048048 -1.8055 0.013711 c-0.17363 0.0026172 -0.3466 0.043436 -0.52068 0.053632 c-0.19879 0.011719 -0.40452 0.04168 -0.59704 0.0069532 c-0.89632 -0.16125 -1.7988 -0.072264 -2.6517 -0.12176 c-0.16644 0.125 -0.15668 0.25934 -0.12781 0.37543 c0.11024 0.4436 0.1048 0.895 0.10633 1.3454 c0.0051952 1.58 0.004336 3.1602 0.0069532 4.74 c0.00023438 0.074452 0.013047 0.14891 0.018906 0.21121 c0.093752 0.12848 0.22266 0.12066 0.34637 0.12262 c0.37633 0.0058592 0.75288 0.00042968 1.1286 0.015391 c0.29887 0.011719 0.60404 -0.020195 0.89224 0.09832 c0.044924 0.018438 0.09832 0.019961 0.14824 0.022344 c0.90544 0.044924 1.8104 0.09504 2.7161 0.13215 c-0.028438 -0.37266 -0.034726 -0.74508 0.007578 -1.1168 c0.013906 -0.12305 0.17277 -0.2127 0.35141 -0.20445 c0.54776 0.025391 1.0969 0.03668 1.646 0.036016 c0.47464 -0.011953 0.94928 -0.023672 1.4241 -0.035625 c0.093984 -0.0023828 0.19359 -0.0039062 0.27562 0.028008 c0.11156 0.043632 0.15496 0.13238 0.17297 0.22332 c0.1402 0.14062 0.15777 0.32707 0.16516 0.50048 c0.037109 0.8666 0.047108 1.7341 0.059064 2.6011 c0.008242 0.15973 0.011914 0.3173 0.0073436 0.51068 c0.00042968 0.035586 0.00085936 0.071172 0.0015234 0.10676 c0.00042968 0.032539 0.0010938 0.064884 0.0015234 0.097228 c0.00023438 0.016484 0.00066408 0.032774 0.00089844 0.049064 c0.0012891 0.08332 0.0028125 0.16644 0.0041016 0.24957 c0.0028125 0.06336 0.0045312 0.12672 0.0084376 0.18574 c0.013906 0.20465 -0.065744 0.34942 -0.07832 0.52476 c-0.0041408 0.058164 -0.0084764 0.11656 -0.012617 0.17496 c0.07922 0.59252 0.12805 1.1846 0.060548 1.7753 c-0.013906 0.12305 -0.17277 0.2127 -0.35141 0.20445 c-0.54776 -0.025391 -1.0969 -0.03668 -1.646 -0.036016 c-0.47464 0.011953 -0.94928 0.023672 -1.4241 0.035625 c-0.093984 0.0023828 -0.19359 0.0039062 -0.27562 -0.028008 c-0.11156 -0.043632 -0.15496 -0.13238 -0.17297 -0.22332 c-0.14043 -0.14062 -0.15801 -0.32707 -0.16539 -0.50048 c-0.0047656 -0.11414 -0.0060548 -0.22852 -0.010195 -0.34266 c-0.33726 0.01043 -0.67452 -0.01668 -1.0159 -0.047696 c-1.3432 -0.12242 -2.6875 -0.30125 -4.0424 -0.17602 c-0.024102 0.0021875 -0.047108 0.016953 -0.0675 0.024766 c-0.15887 0.13152 -0.14238 0.31512 -0.1452 0.48788 c-0.010625 0.6522 -0.021914 1.3041 -0.02082 1.9563 c0.0012891 0.8028 0.013672 1.6054 0.023672 2.408 c0.0080468 0.64892 0.16734 1.2861 0.099648 1.874 c0.14106 0.18121 0.27258 0.15191 0.39324 0.15106 c0.7774 -0.005 1.555 -0.024961 2.3322 -0.015625 c0.62416 0.007578 1.2453 0.026016 1.871 0.10262 c0.767 0.093752 1.552 0.075936 2.3257 -0.022578 c0.54928 -0.070116 1.0904 -0.079452 1.642 0.013203 c0.39219 0.065976 0.79956 0.052968 1.2002 0.054064 c0.7776 0.0021875 1.555 -0.0091016 2.3326 -0.017774 c0.053592 -0.00066408 0.10699 -0.0039062 0.16058 -0.005 c-0.00023438 -0.0084764 -0.00023438 -0.016953 -0.00046876 -0.02543 c-0.00023438 -0.017578 -0.00066408 -0.035391 -0.00089844 -0.052968 c-0.0012891 -0.089844 -0.0028125 -0.17992 -0.0041016 -0.27 c-0.0028125 -0.068592 -0.0045312 -0.13738 -0.0084376 -0.20117 c-0.013906 -0.22137 0.065744 -0.37805 0.07832 -0.56792 c0.0041408 -0.063164 0.0084764 -0.12633 0.012617 -0.18949 c-0.07922 -0.64152 -0.12805 -1.2822 -0.060548 -1.9218 c0.013906 -0.13305 0.17277 -0.23008 0.35141 -0.22117 c0.54776 0.027578 1.0969 0.039726 1.646 0.039062 c0.47484 -0.012812 0.94948 -0.025625 1.4243 -0.038438 c0.093984 -0.0026172 0.19359 -0.0041408 0.27562 0.030352 c0.11156 0.047108 0.15496 0.14324 0.17297 0.24176 c0.1402 0.15215 0.15777 0.35398 0.16516 0.54172 c0.034492 0.87052 0.045116 1.7414 0.056172 2.6122 z M184.749 15.835999999999999 c-0.17949 0.14043 -0.4176 0.1582 -0.63896 0.1643 c-0.40104 0.013438 -0.80236 0.020391 -1.2036 0.028203 c0.0021875 0.43472 0.0073828 0.86964 0.0065236 1.3044 c-0.0058592 3.2105 -0.011484 6.4208 -0.023203 9.6312 c-0.0015234 0.37328 0.028633 0.74852 -0.08574 1.1188 c-0.049924 0.16234 -0.027148 0.34856 -0.029102 0.52392 c-0.018242 1.6052 -0.028867 3.2103 -0.054256 4.8156 c-0.012578 0.79996 -0.06164 1.5995 -0.075548 2.3994 l0 0.0025781 c0.033203 0.0065236 0.066408 0.013242 0.10137 0.015859 c0.062928 0.0045704 0.12586 0.009336 0.18879 0.013906 c0.63936 -0.08746 1.2779 -0.14129 1.9153 -0.066836 c0.13281 0.015391 0.22938 0.19117 0.22047 0.38844 c-0.027344 0.60576 -0.039492 1.213 -0.038828 1.82 c0.012812 0.525 0.025625 1.0498 0.038438 1.5748 c0.0023828 0.10418 0.0041016 0.21422 -0.030391 0.30492 c-0.046876 0.12348 -0.14281 0.17144 -0.2409 0.19141 c-0.15172 0.1552 -0.35289 0.17449 -0.53996 0.18274 c-0.9352 0.041016 -1.8708 0.052072 -2.8062 0.065312 c-0.1723 0.0091016 -0.34223 0.013438 -0.5508 0.008242 c-0.038398 0.00066408 -0.076796 0.0010938 -0.1152 0.0017578 c-0.034961 0.00066408 -0.069924 0.0010938 -0.10484 0.0017578 c-0.017578 0.00023438 -0.035156 0.00066408 -0.052736 0.00089844 c-0.089648 0.0015234 -0.17949 0.0030469 -0.26914 0.0045704 c-0.06836 0.0030469 -0.13695 0.005 -0.20055 0.009336 c-0.2207 0.015195 -0.37676 -0.072696 -0.566 -0.0866 c-0.025195 -0.0019531 -0.050588 -0.0036719 -0.075976 -0.0056252 c-0.057928 -0.00023438 -0.11586 -0.00046876 -0.17379 -0.00089844 c-0.619 0.082696 -1.2373 0.13176 -1.8543 0.059688 c-0.073124 -0.0084764 -0.13476 -0.066876 -0.17426 -0.14976 c-0.28863 -0.2702 -0.46576 -0.6298 -0.65672 -0.97684 c-0.37394 -0.67908 -0.73488 -1.3656 -1.1027 -2.0482 c-0.42736 -0.7928 -0.86356 -1.5809 -1.2826 -2.378 c-0.62828 -1.1952 -1.2379 -2.4004 -1.8691 -3.594 c-0.47964 -0.9072 -0.99076 -1.7979 -1.4691 -2.7058 c-0.6068 -1.1513 -1.2043 -2.3075 -1.7349 -3.4974 c-0.43772 -0.98208 -0.895 -1.9557 -1.3464 -2.9319 c-0.061836 -0.13367 -0.13844 -0.26062 -0.21742 -0.40776 c-0.14215 0.21117 -0.089412 0.41648 -0.090076 0.60984 c-0.0089064 2.4077 -0.011094 4.8156 -0.018476 7.2236 c-0.0021875 0.69968 -0.0071876 1.3966 -0.081212 2.0976 c-0.076172 0.71988 -0.027109 1.453 -0.032539 2.1803 c-0.0056252 0.76656 -0.010391 1.5333 -0.017539 2.2999 c0.58468 -0.058828 1.1685 -0.085508 1.7517 -0.024531 c0.14844 0.015391 0.25672 0.19117 0.24672 0.38844 c-0.03082 0.60576 -0.044492 1.213 -0.043632 1.82 c0.014336 0.525 0.028672 1.0498 0.043008 1.5748 c0.0028125 0.10418 0.0045312 0.21422 -0.033867 0.30492 c-0.052736 0.12348 -0.15996 0.17144 -0.26976 0.19141 c-0.16973 0.15516 -0.395 0.17445 -0.60444 0.1827 c-1.0467 0.041016 -2.0943 0.052072 -3.1415 0.065312 c-0.19293 0.0091016 -0.38305 0.013438 -0.61656 0.008242 c-0.042968 0.00066408 -0.085936 0.0010938 -0.12891 0.0017578 c-0.039297 0.00066408 -0.07836 0.0010938 -0.11742 0.0017578 c-0.019531 0.00023438 -0.039297 0.00066408 -0.059064 0.00089844 c-0.10027 0.0015234 -0.20074 0.0030469 -0.30121 0.0045704 c-0.0766 0.0030469 -0.15301 0.005 -0.22442 0.009336 c-0.24719 0.015195 -0.42192 -0.072696 -0.63376 -0.0866 c-0.070548 -0.0045704 -0.14086 -0.009336 -0.21141 -0.013906 c-0.7158 0.08746 -1.4307 0.14129 -2.1442 0.066836 c-0.14844 -0.015391 -0.25672 -0.19117 -0.24672 -0.38844 c0.03082 -0.60576 0.044492 -1.213 0.043632 -1.82 c-0.014336 -0.525 -0.028672 -1.0498 -0.043008 -1.5748 c-0.0030469 -0.10418 -0.0047656 -0.21422 0.033867 -0.30492 c0.05254 -0.12348 0.15976 -0.17144 0.26957 -0.19141 c0.16973 -0.1552 0.395 -0.17449 0.60444 -0.18274 c0.32055 -0.012578 0.64132 -0.018672 0.96188 -0.026484 c0.061836 -1.2177 0.032305 -2.4346 0.039688 -3.6522 c0.008672 -1.4541 0.058592 -2.9117 -0.019336 -4.362 c-0.063164 -1.1767 -0.074452 -2.3515 -0.085076 -3.5274 c-0.012812 -1.404 -0.044296 -2.8104 0.024492 -4.2112 c0.04668 -0.94908 0.02043 -1.9058 0.13676 -2.8461 c0.041252 -0.33293 0.062968 -0.66564 0.079452 -0.99832 c-0.5198 0.068592 -1.0392 0.10699 -1.5574 0.044688 c-0.11676 -0.013906 -0.20184 -0.17277 -0.19402 -0.35141 c0.024297 -0.54776 0.034922 -1.0969 0.034258 -1.646 c-0.011055 -0.47484 -0.022344 -0.94948 -0.033633 -1.4243 c-0.0021875 -0.093984 -0.0037109 -0.19359 0.02668 -0.27562 c0.041252 -0.11156 0.12547 -0.15496 0.21184 -0.17297 c0.13348 -0.1402 0.31035 -0.15777 0.47484 -0.16516 c0.82236 -0.037344 1.6451 -0.047344 2.4679 -0.059296 c0.15148 -0.0080468 0.30078 -0.012188 0.48436 -0.007422 c0.033867 -0.00042968 0.0675 -0.00085936 0.10137 -0.0015234 c0.03082 -0.00042968 0.061408 -0.00085936 0.092228 -0.0015234 c0.015391 -0.00023438 0.031016 -0.00066408 0.046408 -0.00089844 c0.078984 -0.0012891 0.15777 -0.0028125 0.23676 -0.0041016 c0.060116 -0.0028125 0.12024 -0.0045312 0.17621 -0.0084376 c0.19402 -0.013672 0.33141 0.065744 0.49784 0.07832 c0.052072 0.0041408 0.10394 0.0080468 0.15602 0.011953 c0.004336 0.00023438 0.0089064 0.00023438 0.013476 0.00046876 c0.56124 -0.078984 1.1216 -0.12738 1.6811 -0.060116 c0.071172 0.008672 0.13 0.071408 0.16387 0.1591 c0.0012891 -0.00023438 0.0028125 -0.00023438 0.0041016 -0.00046876 c0.32035 0.43276 0.59384 0.8844 0.80416 1.358 c0.57036 1.284 1.3195 2.47 1.9667 3.7112 c0.34617 0.66392 0.6752 1.3376 0.99116 2.0162 c0.35984 0.77284 0.75744 1.5255 1.2069 2.2476 c0.47728 0.76676 0.88356 1.5709 1.2961 2.3706 c0.72312 1.4022 1.4782 2.7856 2.2964 4.1348 c0.38891 0.64176 0.75592 1.2968 1.1309 1.947 c0.061408 0.10656 0.11371 0.21812 0.2552 0.23808 c0.083124 -0.13953 0.051212 -0.29363 0.052928 -0.44144 c0.0067188 -0.55168 0.025156 -1.1042 0.0073436 -1.6553 c-0.026055 -0.80408 0.10699 -1.5982 0.12024 -2.3986 c0.023867 -1.4291 0.0534 -2.859 0.039062 -4.288 c-0.0036719 -0.37524 0.12656 -0.72728 0.071876 -1.1146 c-0.049924 -0.35418 -0.060548 -0.73484 0.029531 -1.0994 c0.011953 -0.04754 0.013906 -0.10266 0.0021875 -0.14976 c-0.10547 -0.42168 -0.017578 -0.84316 0.022578 -1.2588 c0.069452 -0.72056 0.10289 -1.4422 0.12266 -2.1642 c-0.70448 0.069452 -1.4083 0.10875 -2.1106 0.046016 c-0.15715 -0.013906 -0.27176 -0.17277 -0.26113 -0.35141 c0.032774 -0.54776 0.047108 -1.0969 0.046252 -1.646 c-0.015195 -0.47464 -0.030156 -0.94928 -0.045352 -1.4241 c-0.0030469 -0.093984 -0.005 -0.19359 0.03582 -0.27562 c0.055548 -0.11156 0.16906 -0.15496 0.28516 -0.17297 c0.17926 -0.1402 0.41736 -0.15777 0.63896 -0.16516 c1.1066 -0.037109 2.2141 -0.047108 3.3214 -0.059064 c0.20402 -0.008242 0.405 -0.012148 0.652 -0.0073828 c0.045352 -0.00042968 0.090936 -0.00085936 0.13629 -0.0015234 c0.041444 -0.00066408 0.082696 -0.0010938 0.12414 -0.0017578 c0.02082 -0.00023438 0.04164 -0.00066408 0.06246 -0.00089844 c0.10613 -0.0012891 0.21246 -0.0028125 0.31859 -0.0041016 c0.080936 -0.0028125 0.16188 -0.0045312 0.23719 -0.0084376 c0.26129 -0.013906 0.44596 0.065744 0.66996 0.07832 c0.074452 0.0041408 0.1491 0.0084764 0.22356 0.012617 c0.7568 -0.07922 1.5127 -0.12805 2.2671 -0.060548 c0.15715 0.013906 0.27176 0.17277 0.26113 0.35141 c-0.032539 0.54776 -0.046876 1.0969 -0.046016 1.646 c0.015195 0.47484 0.030156 0.94948 0.045352 1.4243 c0.0030469 0.093984 0.005 0.19359 -0.03582 0.27562 c-0.055548 0.11156 -0.16906 0.15496 -0.28516 0.17297 z M216.30599999999998 12.317 c0.12934 0.5228 0.050548 1.021 0.027774 1.5043 c-0.009336 0.1975 -0.016289 0.39566 -0.023242 0.5936 c0.018008 0.60464 0.030156 1.2095 0.039258 1.8143 c0.0091016 0.15973 0.013438 0.3173 0.008242 0.51068 c0.00066408 0.035586 0.0010938 0.071172 0.0017578 0.10676 c0.00042968 0.032344 0.0010938 0.064884 0.0017578 0.097228 c0.00023438 0.016484 0.00066408 0.032774 0.00089844 0.049064 c0.0015234 0.083124 0.0030469 0.16644 0.0045704 0.24957 c0.0030469 0.06336 0.005 0.12672 0.009336 0.18574 c0.015195 0.20465 -0.072696 0.34942 -0.0866 0.52476 c-0.0045704 0.0584 -0.009336 0.1168 -0.013906 0.1752 c0.08746 0.59268 0.14148 1.1848 0.066836 1.7758 c-0.015625 0.12305 -0.19121 0.2127 -0.38871 0.20445 c-0.60552 -0.025391 -1.2128 -0.03668 -1.8198 -0.036016 c-0.525 0.011953 -1.0498 0.023672 -1.5748 0.035625 c-0.10418 0.0023828 -0.21422 0.0039062 -0.30492 -0.028008 c-0.12371 -0.0434 -0.17144 -0.13238 -0.19141 -0.22332 c-0.1552 -0.14043 -0.17449 -0.32688 -0.18274 -0.50052 c-0.037969 -0.80324 -0.049924 -1.6069 -0.062072 -2.4106 c-1.1118 0.0095312 -2.2237 0.023867 -3.3358 0.028867 c-0.40152 0.0019531 -0.78872 0.072928 -1.1576 0.15496 c-0.1068 0.12719 -0.078164 0.25633 -0.078592 0.37875 c-0.0071484 2.1571 -0.011484 4.314 -0.020586 6.4712 c-0.0026172 0.62548 0.018203 1.2527 -0.11156 1.8719 c-0.025391 0.1209 -0.013906 0.25004 -0.013906 0.37527 c-0.0032422 3.0241 -0.0045312 6.0484 -0.0091016 9.0724 c0.51328 -0.043828 1.0257 -0.057736 1.5377 -0.004336 c0.14867 0.015391 0.25676 0.19117 0.24676 0.38844 c-0.03082 0.60576 -0.044492 1.213 -0.043632 1.82 c0.014336 0.525 0.028672 1.0498 0.043008 1.5748 c0.0028125 0.10418 0.0047656 0.21422 -0.033867 0.30492 c-0.05254 0.12348 -0.15976 0.17144 -0.26957 0.19141 c-0.16973 0.1552 -0.395 0.17449 -0.6044 0.18274 c-0.32078 0.012578 -0.64176 0.018672 -0.96272 0.026484 c-0.073556 0.067928 -0.15992 0.070744 -0.24129 0.064648 c-0.42252 -0.031914 -0.849 -0.0028125 -1.2718 -0.035156 c-0.22203 0.0028125 -0.44384 0.0064844 -0.66564 0.0092968 c-0.19293 0.0091016 -0.38305 0.013438 -0.61656 0.008242 c-0.042968 0.00066408 -0.085936 0.0010938 -0.12891 0.0017578 c-0.039062 0.00066408 -0.07836 0.0010938 -0.11742 0.0017578 c-0.019531 0.00023438 -0.039297 0.00066408 -0.059064 0.00089844 c-0.10027 0.0015234 -0.20074 0.0030469 -0.30121 0.0045704 c-0.0766 0.0030469 -0.1532 0.005 -0.22438 0.009336 c-0.24719 0.015195 -0.42192 -0.072696 -0.63376 -0.0866 c-0.070548 -0.0045704 -0.14086 -0.009336 -0.21141 -0.013906 c-0.047736 0.0058592 -0.095704 0.01 -0.14344 0.01543 c-0.03125 0.007578 -0.0625 0.013672 -0.093516 0.023867 c-0.072264 0.024102 -0.15191 0.030391 -0.22832 0.010859 c-0.56016 0.053592 -1.1199 0.075076 -1.6788 0.01668 c-0.14844 -0.015391 -0.25672 -0.19117 -0.24672 -0.38844 c0.03082 -0.60576 0.044492 -1.213 0.043632 -1.82 c-0.014336 -0.525 -0.028672 -1.0498 -0.043008 -1.5748 c-0.0028125 -0.10418 -0.0045312 -0.21422 0.033867 -0.30492 c0.05254 -0.12348 0.15996 -0.17144 0.26976 -0.19141 c0.16973 -0.15516 0.395 -0.17445 0.6044 -0.1827 c0.28973 -0.011289 0.57968 -0.016484 0.86964 -0.023867 c0.0021875 -0.047968 0.0026172 -0.095704 -0.0034766 -0.14238 c-0.089412 -0.69448 -0.075076 -1.3894 -0.0484 -2.0867 c0.013242 -0.3477 -0.034492 -0.69712 -0.034922 -1.0458 c-0.0030469 -2.2072 -0.00066408 -4.4144 0 -6.6216 c0 -0.075312 -0.011953 -0.15215 -0.00046876 -0.22551 c0.17363 -1.0947 0.052736 -2.2052 0.16297 -3.2993 c0.12609 -1.2514 0.0766 -2.5028 0.11633 -3.7538 c0.010195 -0.32293 0.0015234 -0.64652 0.0015234 -0.9354 c-0.18988 -0.21031 -0.41388 -0.11375 -0.5994 -0.17473 c-0.16254 -0.053592 -0.34418 -0.059452 -0.51824 -0.067032 c-0.40064 -0.017344 -0.80216 -0.021484 -1.2032 -0.033203 c-0.56712 -0.016719 -1.1338 -0.046876 -1.7005 -0.077032 c0.00066408 0.02582 0.0010938 0.051876 0.0015234 0.077696 c0.00023438 0.016484 0.00066408 0.032774 0.00089844 0.049064 c0.0015234 0.083124 0.0030469 0.16644 0.0045704 0.24957 c0.0030469 0.06336 0.005 0.12672 0.009336 0.18574 c0.015195 0.20465 -0.072696 0.34942 -0.0866 0.52476 c-0.0045704 0.0584 -0.009336 0.1168 -0.013906 0.1752 c0.087696 0.59268 0.14152 1.1848 0.067072 1.7758 c-0.015625 0.12305 -0.19141 0.2127 -0.38867 0.20445 c-0.60576 -0.025391 -1.2128 -0.03668 -1.8198 -0.036016 c-0.525 0.011953 -1.0498 0.023672 -1.5748 0.035625 c-0.10418 0.0023828 -0.21422 0.0039062 -0.30492 -0.028008 c-0.12371 -0.0434 -0.17144 -0.13238 -0.19141 -0.22332 c-0.1552 -0.14043 -0.17449 -0.32688 -0.18274 -0.50052 c-0.041016 -0.86704 -0.052072 -1.7345 -0.065312 -2.6018 c-0.0041408 -0.073556 -0.0071876 -0.14691 -0.0089064 -0.22332 c-0.011289 -0.019102 -0.019531 -0.036445 -0.019531 -0.052928 c0.00042968 -0.29644 0.0028125 -0.59288 0.0034766 -0.88932 c-0.00066408 -0.010859 -0.00089844 -0.022578 -0.0017578 -0.033203 c-0.0015234 -0.019961 0.0017188 -0.037305 0.0019531 -0.056172 c0.0012891 -0.50436 0.0036719 -1.0088 0.0058592 -1.5131 c-0.010859 -0.19816 -0.008672 -0.39609 0.0021875 -0.5938 c0.0015234 -0.30016 0.0015234 -0.60052 0.0034766 -0.90068 c0.00042968 -0.070312 0.039297 -0.1402 0.067304 -0.23375 c0.088752 -0.026914 0.18164 -0.079452 0.2743 -0.079024 c0.57448 0.0021875 1.147 -0.037109 1.7237 0.058592 c0.41604 0.069024 0.85032 0.033867 1.2766 0.034102 c0.9278 0.00023438 1.8558 -0.0039062 2.7836 -0.012812 c0.22418 -0.0021875 0.44816 -0.043204 0.67216 -0.043436 c0.41692 -0.00042968 0.83408 0.024297 1.2512 0.023203 c0.3698 -0.0010938 0.73724 0.0064844 1.1099 -0.040196 c0.4412 -0.055352 0.8948 -0.031484 1.3421 -0.015859 c1.0009 0.034726 1.9999 -0.039726 3.0002 -0.038438 c0.97792 0.0012891 1.9591 0.019961 2.9331 -0.049688 c0.65324 -0.046876 1.2937 0.040156 1.9407 0.037969 c1.0782 -0.0036719 2.1566 0.031484 3.2348 0.033438 c0.40368 0.00066408 0.7878 0.079024 1.1615 0.15109 z M233.251 16.184 c-0.16973 0.1402 -0.39473 0.15785 -0.6048 0.16414 c-0.4002 0.014336 -0.8008 0.022148 -1.2012 0.029961 c0.008672 1.5652 0.023203 3.1305 0.019726 4.6956 c-0.0069532 3.0599 -0.030156 6.1196 -0.04664 9.1796 c-0.00042968 0.075312 0.008242 0.15191 -0.0034766 0.22547 c-0.19965 1.2464 -0.11024 2.5002 -0.085508 3.7509 c0.012812 0.65176 0.033867 1.303 0.056444 1.9546 c0.64152 -0.064452 1.2826 -0.099412 1.9224 -0.038867 c0.14844 0.013906 0.25672 0.17277 0.24672 0.35141 c-0.03082 0.54776 -0.044492 1.0969 -0.043632 1.646 c0.014336 0.47484 0.028672 0.94948 0.043008 1.4243 c0.0028125 0.093984 0.0047656 0.19359 -0.033867 0.27562 c-0.05254 0.11156 -0.15996 0.15496 -0.26976 0.17297 c-0.16973 0.14043 -0.395 0.15801 -0.6044 0.16539 c-1.0467 0.037109 -2.0943 0.047108 -3.1415 0.059064 c-0.19293 0.008242 -0.38305 0.012148 -0.61656 0.0073828 c-0.042968 0.00042968 -0.085936 0.00085936 -0.12891 0.0015234 c-0.039062 0.00042968 -0.07836 0.00085936 -0.11742 0.0015234 c-0.019531 0.00023438 -0.039297 0.00066408 -0.059064 0.00089844 c-0.095508 0.0012891 -0.19121 0.0025781 -0.28672 0.0038672 c-0.066408 0.0080468 -0.13172 0.011953 -0.19422 0.0069532 c-0.014531 0.00066408 -0.030391 0.00089844 -0.044728 0.0017578 c-0.15344 0.0084764 -0.27887 -0.018633 -0.40276 -0.043592 c-0.11414 0.013242 -0.22766 0.024726 -0.33965 -0.036914 c-0.00042968 -0.0015234 -0.0012891 -0.0028125 -0.0019531 -0.004336 c-0.033633 -0.0021875 -0.067072 -0.0041408 -0.10051 -0.0060936 c-0.7158 0.07922 -1.4307 0.12805 -2.1442 0.060548 c-0.14844 -0.013906 -0.25672 -0.17277 -0.24672 -0.35141 c0.03082 -0.54776 0.044492 -1.0969 0.043632 -1.646 c-0.014336 -0.47464 -0.028672 -0.94928 -0.043008 -1.4241 c-0.0028125 -0.093984 -0.0047656 -0.19359 0.033867 -0.27562 c0.05254 -0.11156 0.15996 -0.15496 0.26976 -0.17297 c0.16973 -0.1402 0.395 -0.15777 0.6044 -0.16516 c0.44796 -0.015859 0.89612 -0.025195 1.3443 -0.033438 c-0.023672 -0.6528 -0.1018 -1.3013 -0.11961 -1.9539 c-0.087892 -3.2103 -0.043828 -6.4208 -0.022774 -9.6312 c0.013906 -2.1319 0.013047 -4.264 0.034766 -6.396 c0.0062892 -0.6092 0.06164 -1.2182 0.084844 -1.8274 c-0.66196 0.068788 -1.3232 0.10719 -1.9832 0.044884 c-0.14844 -0.013906 -0.25672 -0.17277 -0.24672 -0.35141 c0.03082 -0.54776 0.044492 -1.0969 0.043632 -1.646 c-0.014336 -0.47464 -0.028672 -0.94928 -0.043008 -1.4241 c-0.0028125 -0.093984 -0.0047656 -0.19359 0.033867 -0.27562 c0.05254 -0.11156 0.15996 -0.15496 0.26976 -0.17297 c0.16973 -0.1402 0.395 -0.15777 0.6044 -0.16516 c1.0467 -0.037109 2.0943 -0.047108 3.1415 -0.059064 c0.19293 -0.008242 0.38305 -0.012148 0.61656 -0.0073828 c0.042968 -0.00042968 0.085936 -0.00085936 0.12891 -0.0015234 c0.039062 -0.00042968 0.07836 -0.0010938 0.11742 -0.0015234 c0.019531 -0.00023438 0.039297 -0.00066408 0.059064 -0.00089844 c0.10047 -0.0012891 0.20094 -0.0028125 0.30141 -0.0041016 c0.0766 -0.0028125 0.1532 -0.0045312 0.22438 -0.0084376 c0.24719 -0.013906 0.42192 0.065744 0.63376 0.07832 c0.070548 0.0041408 0.14086 0.0084764 0.21141 0.012617 c0.7158 -0.07922 1.4307 -0.12805 2.1442 -0.060548 c0.14844 0.013906 0.25672 0.17277 0.24672 0.35141 c-0.03082 0.54776 -0.044492 1.0969 -0.043632 1.646 c0.014336 0.47464 0.028672 0.94928 0.043008 1.4241 c0.0028125 0.093984 0.0047656 0.19359 -0.033867 0.27562 c-0.05254 0.11156 -0.15996 0.15496 -0.26976 0.17297 z"></path></g><g id="SvgjsG4986" featureKey="sloganFeature-0" transform="matrix(0.5477576630365965,0,0,0.5477576630365965,137.12358805257088,53.82300597229367)" fill="#005792"><path d="M10.9 18.7 l0 1.3 l-5.8 0 c-2.1 0 -3.5 -1.4 -3.5 -3.3 l0 -7.4 c0 -1.9 1.4 -3.3 3.5 -3.3 l5.8 0 l0 0.9 l-0.4 0.4 l-5.4 0 c-1.1 0 -2 0.9 -2 2 l0 7.4 c0 1.1 0.9 2 2 2 l5.8 0 z M13.2 16.9 l0 -7.8 c0 -1.9 1.4 -3.3 3.5 -3.3 l3.5 0 c2.1 0 3.5 1.4 3.5 3.3 l0 7.8 c0 1.9 -1.4 3.3 -3.5 3.3 l-3.5 0 c-2.1 0 -3.5 -1.4 -3.5 -3.3 z M22.2 16.9 l0 -7.8 c0 -1.1 -0.9 -2 -2 -2 l-3.5 0 c-1.1 0 -2 0.9 -2 2 l0 7.8 c0 1.1 0.9 2 2 2 l3.5 0 c1.1 0 2 -0.9 2 -2 z M35.5 20 l-6.8 -11.5 l-0.1 0 l0.2 2.6 l0 8.9 l-1.5 0 l0 -14 l1.6 0 l6.8 11.5 l0.1 0 l-0.2 -2.6 l0 -8.9 l1.5 0 l0 14 l-1.6 0 z M45.2 7.300000000000001 l0 12.7 l-1.5 0 l0 -12.7 l-4.4 0 l0 -1.3 l10.3 0 l0 0.9 l-0.4 0.4 l-4 0 z M51.800000000000004 20 l0 -14 l9.1 0 l0 0.9 l-0.4 0.4 l-7.2 0 l0 4.9 l5.7 0 l0 1.3 l-5.7 0 l0 5.2 l7.6 0 l0 1.3 l-9.1 0 z M71.7 20 l-6.8 -11.5 l-0.1 0 l0.2 2.6 l0 8.9 l-1.5 0 l0 -14 l1.6 0 l6.8 11.5 l0.1 0 l-0.2 -2.6 l0 -8.9 l1.5 0 l0 14 l-1.6 0 z M81.4 7.300000000000001 l0 12.7 l-1.5 0 l0 -12.7 l-4.4 0 l0 -1.3 l10.3 0 l0 0.9 l-0.4 0.4 l-4 0 z M101.40000000000002 18.7 l0 1.3 l-5.8 0 c-2.1 0 -3.5 -1.4 -3.5 -3.3 l0 -7.4 c0 -1.9 1.4 -3.3 3.5 -3.3 l5.8 0 l0 0.9 l-0.4 0.4 l-5.4 0 c-1.1 0 -2 0.9 -2 2 l0 7.4 c0 1.1 0.9 2 2 2 l5.8 0 z M105.60000000000001 20 l-1.5 0 l0 -14 l6.2 0 c2.1 0 3.5 1.4 3.5 3.3 l0 1.9 c0 2.8 -2.7 3.2 -2.7 3.2 l3.1 5 l0 0.6 l-1.5 0 l-3.1 -5.5 l-4 0 l0 5.5 z M110.30000000000001 7.300000000000001 l-4.7 0 l0 5.9 l4.7 0 c1.1 0 2 -0.9 2 -2 l0 -1.9 c0 -1.1 -0.9 -2 -2 -2 z M117.2 20 l0 -14 l9.1 0 l0 0.9 l-0.4 0.4 l-7.2 0 l0 4.9 l5.7 0 l0 1.3 l-5.7 0 l0 5.2 l7.6 0 l0 1.3 l-9.1 0 z M129.9 16.4 l-1.2 3.6 l-1.5 0 l0 -0.6 l4.9 -13.4 l1.7 0 l4.9 13.4 l0 0.6 l-1.5 0 l-1.2 -3.6 l-6.1 0 z M135.5 15.1 l-2.5 -7.3 l-0.1 0 l-2.5 7.3 l5.1 0 z M145.1 7.300000000000001 l0 12.7 l-1.5 0 l0 -12.7 l-4.4 0 l0 -1.3 l10.3 0 l0 0.9 l-0.4 0.4 l-4 0 z M153.2 20 l-1.5 0 l0 -14 l1.5 0 l0 14 z M156.79999999999998 16.9 l0 -7.8 c0 -1.9 1.4 -3.3 3.5 -3.3 l3.5 0 c2.1 0 3.5 1.4 3.5 3.3 l0 7.8 c0 1.9 -1.4 3.3 -3.5 3.3 l-3.5 0 c-2.1 0 -3.5 -1.4 -3.5 -3.3 z M165.79999999999998 16.9 l0 -7.8 c0 -1.1 -0.9 -2 -2 -2 l-3.5 0 c-1.1 0 -2 0.9 -2 2 l0 7.8 c0 1.1 0.9 2 2 2 l3.5 0 c1.1 0 2 -0.9 2 -2 z M179.09999999999997 20 l-6.8 -11.5 l-0.1 0 l0.2 2.6 l0 8.9 l-1.5 0 l0 -14 l1.6 0 l6.8 11.5 l0.1 0 l-0.2 -2.6 l0 -8.9 l1.5 0 l0 14 l-1.6 0 z M197.3 18.1 l-1.5 0 l-4.1 -9.8 l-0.1 0 l-1.4 11.7 l-1.5 0 l0 -0.6 l1.8 -13.4 l1.8 0 l4.2 10.1 l0.1 0 l4.2 -10.1 l1.8 0 l1.8 13.4 l0 0.6 l-1.5 0 l-1.4 -11.7 l-0.1 0 z M208.6 16.4 l-1.2 3.6 l-1.5 0 l0 -0.6 l4.9 -13.4 l1.7 0 l4.9 13.4 l0 0.6 l-1.5 0 l-1.2 -3.6 l-6.1 0 z M214.2 15.1 l-2.5 -7.3 l-0.1 0 l-2.5 7.3 l5.1 0 z M219.7 20 l0 -14 l6.4 0 c2.1 0 3.5 1.4 3.5 3.3 l0 7.4 c0 1.9 -1.4 3.3 -3.5 3.3 l-6.4 0 z M221.2 7.300000000000001 l0 11.4 l4.9 0 c1.1 0 2 -0.9 2 -2 l0 -7.4 c0 -1.1 -0.9 -2 -2 -2 l-4.9 0 z M233.2 20 l0 -14 l9.1 0 l0 0.9 l-0.4 0.4 l-7.2 0 l0 4.9 l5.7 0 l0 1.3 l-5.7 0 l0 5.2 l7.6 0 l0 1.3 l-9.1 0 z M249.7 20 l0 -14 l9.1 0 l0 0.9 l-0.4 0.4 l-7.2 0 l0 4.9 l5.7 0 l0 1.3 l-5.7 0 l0 5.2 l7.6 0 l0 1.3 l-9.1 0 z M262.4 16.4 l-1.2 3.6 l-1.5 0 l0 -0.6 l4.9 -13.4 l1.7 0 l4.9 13.4 l0 0.6 l-1.5 0 l-1.2 -3.6 l-6.1 0 z M268 15.1 l-2.5 -7.3 l-0.1 0 l-2.5 7.3 l5.1 0 z M272.6 9.9 l0 -0.6 c0 -1.9 1.4 -3.3 3.5 -3.3 l5.5 0 l0 0.9 l-0.4 0.4 l-5.1 0 c-1.1 0 -2 0.9 -2 2 l0 0.6 c0 1.1 0.6 1.68 1.6 1.9 l3.7 0.8 c1.4 0.3 2.5 1.4 2.5 3.2 l0 0.9 c0 1.9 -1.4 3.3 -3.5 3.3 l-6 0 l0 -1.3 l6 0 c1.1 0 2 -0.9 2 -2 l0 -0.9 c0 -1.1 -0.6 -1.68 -1.6 -1.9 l-3.7 -0.8 c-1.4 -0.3 -2.5 -1.4 -2.5 -3.2 z  M289 15.7 l0 4.3 l-1.5 0 l0 -4.3 l-4.7 -9.1 l0 -0.6 l1.5 0 l3.9 8.1 l0.1 0 l3.9 -8.1 l1.5 0 l0 0.6 z"></path></g>
			</g>
		</svg>
	